<svg xmlns="http://www.w3.org/2000/svg" viewBox="0 0 1200 800" role="img" aria-labelledby="title desc">
  <title id="title">eAUDiTHub audit and compliance illustration</title>
  <desc id="desc">A compliance dashboard with audit checklist, shield, charts, and inspection markers for eAUDiTHub.</desc>
  <defs>
    <linearGradient id="bg" x1="0" x2="1" y1="0" y2="1">
      <stop offset="0%" stop-color="#1e1b4b"/>
      <stop offset="52%" stop-color="#3730a3"/>
      <stop offset="100%" stop-color="#2563eb"/>
    </linearGradient>
    <linearGradient id="lime" x1="0" x2="1">
      <stop offset="0%" stop-color="#22c55e"/>
      <stop offset="100%" stop-color="#86efac"/>
    </linearGradient>
  </defs>
  <rect width="1200" height="800" fill="url(#bg)"/>
  <circle cx="130" cy="110" r="150" fill="#ffffff" opacity="0.05"/>
  <circle cx="1070" cy="120" r="170" fill="#ffffff" opacity="0.06"/>
  <rect x="88" y="125" width="430" height="535" rx="30" fill="#ffffff" opacity="0.08"/>
  <rect x="126" y="163" width="354" height="459" rx="24" fill="#241f63" stroke="#ffffff" stroke-opacity="0.16"/>
  <text x="160" y="224" fill="#eff6ff" font-size="42" font-family="Arial, sans-serif" font-weight="700">eAUDiTHub</text>
  <text x="160" y="262" fill="#bfdbfe" font-size="24" font-family="Arial, sans-serif">Mobile-first audit and compliance workflows</text>
  <rect x="160" y="312" width="286" height="228" rx="20" fill="#ffffff"/>
  <rect x="190" y="350" width="178" height="18" rx="9" fill="#dbeafe"/>
  <rect x="190" y="395" width="208" height="18" rx="9" fill="#dbeafe"/>
  <rect x="190" y="440" width="162" height="18" rx="9" fill="#dbeafe"/>
  <path d="M392 344l28 28 48-58" fill="none" stroke="url(#lime)" stroke-width="12" stroke-linecap="round" stroke-linejoin="round"/>
  <path d="M392 389l28 28 48-58" fill="none" stroke="url(#lime)" stroke-width="12" stroke-linecap="round" stroke-linejoin="round"/>
  <path d="M392 434l28 28 48-58" fill="none" stroke="url(#lime)" stroke-width="12" stroke-linecap="round" stroke-linejoin="round"/>
  <circle cx="822" cy="232" r="152" fill="#ffffff" opacity="0.12"/>
  <path d="M822 145l78 31v70c0 64-42 118-108 142-66-24-108-78-108-142v-70l78-31 30-12z" fill="#ffffff"/>
  <path d="M793 231l25 25 52-62" fill="none" stroke="#22c55e" stroke-width="14" stroke-linecap="round" stroke-linejoin="round"/>
  <rect x="590" y="455" width="468" height="224" rx="28" fill="#ffffff" opacity="0.97"/>
  <rect x="630" y="500" width="136" height="136" rx="20" fill="#1d4ed8" opacity="0.12"/>
  <path d="M674 608V540m0 0l-24 24m24-24l24 24" fill="none" stroke="#1d4ed8" stroke-width="10" stroke-linecap="round" stroke-linejoin="round"/>
  <rect x="806" y="504" width="190" height="26" rx="13" fill="#dbeafe"/>
  <rect x="806" y="550" width="162" height="24" rx="12" fill="#2563eb" opacity="0.18"/>
  <rect x="806" y="594" width="142" height="24" rx="12" fill="#2563eb" opacity="0.1"/>
  <circle cx="1014" cy="408" r="52" fill="url(#lime)"/>
  <path d="M990 408l16 16 32-34" fill="none" stroke="#0f172a" stroke-width="10" stroke-linecap="round" stroke-linejoin="round"/>
</svg>
