<svg xmlns="http://www.w3.org/2000/svg" viewBox="0 0 1200 800" role="img" aria-labelledby="title desc">
  <title id="title">MicroFUND microfinance illustration</title>
  <desc id="desc">A stylized financial dashboard with coins, upward chart, loan cards, and community lending visuals for MicroFUND.</desc>
  <defs>
    <linearGradient id="bg" x1="0" x2="1" y1="0" y2="1">
      <stop offset="0%" stop-color="#042f2e"/>
      <stop offset="60%" stop-color="#0f766e"/>
      <stop offset="100%" stop-color="#14b8a6"/>
    </linearGradient>
    <linearGradient id="gold" x1="0" x2="1">
      <stop offset="0%" stop-color="#f59e0b"/>
      <stop offset="100%" stop-color="#fcd34d"/>
    </linearGradient>
  </defs>
  <rect width="1200" height="800" fill="url(#bg)"/>
  <circle cx="150" cy="120" r="170" fill="#ffffff" opacity="0.05"/>
  <circle cx="1050" cy="110" r="160" fill="#ffffff" opacity="0.05"/>
  <rect x="80" y="130" width="450" height="525" rx="30" fill="#ffffff" opacity="0.09"/>
  <rect x="118" y="168" width="374" height="449" rx="24" fill="#083c3b" stroke="#ffffff" stroke-opacity="0.18"/>
  <text x="154" y="226" fill="#ecfeff" font-size="44" font-family="Arial, sans-serif" font-weight="700">MicroFUND</text>
  <text x="154" y="264" fill="#a7f3d0" font-size="24" font-family="Arial, sans-serif">Inclusive lending and portfolio analytics</text>
  <path d="M154 500c48-52 94-82 138-82 36 0 64 17 82 50 18-23 42-34 71-34 30 0 55 12 76 37" fill="none" stroke="#fcd34d" stroke-width="16" stroke-linecap="round"/>
  <circle cx="154" cy="500" r="14" fill="#fcd34d"/>
  <circle cx="292" cy="418" r="14" fill="#fcd34d"/>
  <circle cx="374" cy="468" r="14" fill="#fcd34d"/>
  <circle cx="445" cy="437" r="14" fill="#fcd34d"/>
  <rect x="154" y="300" width="125" height="88" rx="18" fill="#115e59"/>
  <rect x="298" y="300" width="150" height="88" rx="18" fill="#134e4a"/>
  <text x="182" y="354" fill="#ecfeff" font-size="32" font-family="Arial, sans-serif" font-weight="700">$2.4M</text>
  <text x="322" y="354" fill="#99f6e4" font-size="28" font-family="Arial, sans-serif" font-weight="700">98.2%</text>
  <circle cx="838" cy="245" r="166" fill="#ffffff" opacity="0.12"/>
  <path d="M840 144c61 0 111 50 111 111S901 366 840 366 729 316 729 255s50-111 111-111z" fill="#ffffff"/>
  <circle cx="840" cy="255" r="62" fill="url(#gold)"/>
  <path d="M840 214v82m-28-54c0-14 13-24 28-24s28 10 28 24c0 14-13 24-28 24s-28 10-28 24 13 24 28 24 28-10 28-24" fill="none" stroke="#0f172a" stroke-width="10" stroke-linecap="round"/>
  <rect x="612" y="455" width="468" height="220" rx="28" fill="#ffffff" opacity="0.96"/>
  <rect x="648" y="500" width="182" height="132" rx="22" fill="#134e4a"/>
  <rect x="672" y="530" width="80" height="18" rx="9" fill="#99f6e4"/>
  <rect x="672" y="566" width="112" height="18" rx="9" fill="#d1fae5"/>
  <rect x="864" y="504" width="178" height="24" rx="12" fill="#d1d5db"/>
  <rect x="864" y="548" width="152" height="24" rx="12" fill="#0f766e" opacity="0.18"/>
  <rect x="864" y="592" width="126" height="24" rx="12" fill="#0f766e" opacity="0.12"/>
  <path d="M1010 387l52 29-52 29z" fill="url(#gold)"/>
</svg>
